<svg width="30" height="30" viewBox="0 0 30 30" fill="none" xmlns="http://www.w3.org/2000/svg">
<path d="M0 6C0 2.68629 2.68629 0 6 0H24C27.3137 0 30 2.68629 30 6V24C30 27.3137 27.3137 30 24 30H6C2.68629 30 0 27.3137 0 24V6Z" fill="#313131"/>
<path fill-rule="evenodd" clip-rule="evenodd" d="M16.4303 16.9675C17.7917 16.4052 18.7498 15.0645 18.7498 13.5C18.7498 11.4289 17.0708 9.75 14.9998 9.75C12.9287 9.75 11.2498 11.4289 11.2498 13.5C11.2498 15.0645 12.2078 16.4052 13.5693 16.9675C12.175 17.1998 10.8924 17.7657 9.80835 18.5802L11.1899 20.419C12.2512 19.6217 13.5687 19.1496 14.9999 19.1496C16.431 19.1496 17.7485 19.6217 18.8098 20.419L20.1914 18.5802C19.1073 17.7657 17.8246 17.1997 16.4303 16.9675Z" fill="white"/>
</svg>
